<svg id="Layer_1" data-name="Layer 1" xmlns="http://www.w3.org/2000/svg" xmlns:xlink="http://www.w3.org/1999/xlink" viewBox="0 0 262.62 262.62"><defs><style>.cls-1{fill:url(#linear-gradient);}.cls-2{fill:#fff;}</style><linearGradient id="linear-gradient" y1="262.62" x2="262.62" gradientUnits="userSpaceOnUse"><stop offset="0" stop-color="#0067d5"/><stop offset="0.1" stop-color="#006cdd"/><stop offset="0.39" stop-color="#0076f0"/><stop offset="0.68" stop-color="#007dfb"/><stop offset="1" stop-color="#007fff"/></linearGradient></defs><rect class="cls-1" width="262.62" height="262.62"/><path class="cls-2" d="M150.27,166.67a7.43,7.43,0,0,0-1.17-4l41.37-59.41a8,8,0,0,0,1.48.15A7.48,7.48,0,1,0,184.47,96a7.39,7.39,0,0,0,1.1,3.84l-31.84,45.58L140,125.46a7.5,7.5,0,1,0-2.25,1.56l14.31,20.76-7.95,11.54a8.33,8.33,0,0,0-1.33-.13,8.2,8.2,0,0,0-1.32.13l-24.31-35.27a7.4,7.4,0,0,0,1.09-3.84,7.48,7.48,0,1,0-15,0,7.4,7.4,0,0,0,1.09,3.84L89.68,145.39,76,125.48A7.54,7.54,0,1,0,73.7,127L88,147.8l-7.94,11.52a8.21,8.21,0,0,0-1.33-.13,7.23,7.23,0,0,0-1.4.14L53.08,124.11a7.35,7.35,0,0,0,1.13-3.9,7.48,7.48,0,1,0-7.47,7.47,7.12,7.12,0,0,0,1.39-.14l24.28,35.22a7.36,7.36,0,0,0-1.13,3.91,7.48,7.48,0,1,0,13.79-4l24.23-35.16a7.33,7.33,0,0,0,3,0L120.12,139l-14.4,20.89a7.33,7.33,0,0,0-3-.66,7.48,7.48,0,1,0,5.29,2.2l13.8-20,14.7,21.32a7.47,7.47,0,1,0,13.79,4Z"/><path class="cls-2" d="M172.07,161.45,212.9,102.8a7.47,7.47,0,1,0-2.27-1.53l-40.81,58.61a7.44,7.44,0,1,0,2.25,1.57Z"/></svg>