<svg aria-hidden="true" style="position:absolute;width:0;height:0;overflow:hidden" version="1.1" xmlns="http://www.w3.org/2000/svg" xmlns:xlink="http://www.w3.org/1999/xlink"><defs><symbol id="icon-check" viewBox="0 0 32 32"><title>check</title><path d="M11.884 29.956c-0.524 0-1.026-0.208-1.396-0.582l-9.876-9.918c-0.77-0.774-0.77-2.030 0-2.804 0.772-0.776 2.020-0.776 2.792 0l8.266 8.3 16.406-21.974c0.656-0.874 1.892-1.054 2.764-0.396 0.874 0.656 1.052 1.9 0.396 2.778l-17.774 23.802c-0.344 0.46-0.868 0.748-1.44 0.788-0.046 0.004-0.094 0.006-0.138 0.006z"></path></symbol><symbol id="icon-arrow-simple" viewBox="0 0 32 32"><title>arrow-simple</title><path d="M16.096 20.082l-12.512-12.318c-0.776-0.766-2.034-0.766-2.808 0-0.778 0.764-0.778 2.002 0 2.768l13.914 13.702c0.776 0.764 2.034 0.764 2.812 0l13.912-13.702c0.388-0.382 0.584-0.884 0.584-1.384 0-0.502-0.196-1.002-0.584-1.384-0.776-0.766-2.032-0.766-2.808 0l-12.51 12.318z"></path></symbol><symbol id="icon-vertical-dots" viewBox="0 0 6 32"><title>vertical-dots</title><path d="M3.198 19.198c-1.766 0-3.2-1.432-3.2-3.2 0-1.766 1.434-3.198 3.2-3.198 1.768 0 3.2 1.432 3.2 3.198 0 1.768-1.432 3.2-3.2 3.2zM3.198 6.398c-1.766 0-3.2-1.432-3.2-3.198 0-1.768 1.434-3.202 3.2-3.202 1.768 0 3.2 1.434 3.2 3.202 0 1.766-1.432 3.198-3.2 3.198zM3.198 25.598c1.768 0 3.2 1.434 3.2 3.2 0 1.768-1.432 3.202-3.2 3.202-1.766 0-3.2-1.434-3.2-3.202 0-1.766 1.434-3.2 3.2-3.2z"></path></symbol><symbol id="icon-warn" viewBox="0 0 32 32"><title>warn</title><path d="M15.998 31.998c-8.822 0-15.998-7.176-15.998-15.998 0-8.824 7.176-16 15.998-16s16.002 7.176 16.002 16c0 8.822-7.18 15.998-16.002 15.998zM15.998 4c-6.626 0-12 5.372-12 12 0 6.626 5.374 12 12 12 6.628 0 12-5.374 12-12 0-6.628-5.372-12-12-12zM15.998 24c-1.104 0-2-0.896-2-2 0-1.106 0.896-2 2-2 1.106 0 2 0.894 2 2 0 1.104-0.894 2-2 2zM15.998 18c-1.104 0-2-0.896-2-2v-6c0-1.106 0.896-2 2-2 1.106 0 2 0.894 2 2v6c0 1.104-0.894 2-2 2z"></path></symbol><symbol id="icon-menu-1" viewBox="0 0 32 32"><title>menu-1</title><path d="M29.998 17.998h-28c-1.1 0-2-0.9-2-1.998 0-1.102 0.9-2.002 2-2.002h28c1.098 0 2 0.9 2 2.002 0 1.098-0.902 1.998-2 1.998zM19.998 5.998h-18c-1.1 0-2-0.9-2-1.998 0-1.102 0.9-2.002 2-2.002h18c1.102 0 1.998 0.9 1.998 2.002 0 1.098-0.896 1.998-1.998 1.998zM1.998 25.998h22c1.1 0 2 0.9 2 2.002 0 1.098-0.9 1.998-2 1.998h-22c-1.1 0-2-0.9-2-1.998 0-1.102 0.9-2.002 2-2.002z"></path></symbol><symbol id="icon-menu-2" viewBox="0 0 32 32"><title>menu-2</title><path d="M27.998 31.998h-6.002c-2.208 0-3.998-1.79-3.998-4v-6c0-2.208 1.79-4 3.998-4h6.002c2.21 0 4 1.792 4 4v6c0 2.21-1.79 4-4 4zM27.998 21.998h-6.002v6h6.002v-6zM27.998 13.998h-6.002c-2.208 0-3.998-1.79-3.998-4v-6c0-2.208 1.79-4 3.998-4h6.002c2.21 0 4 1.792 4 4v6c0 2.21-1.79 4-4 4zM27.998 3.998h-6.002v6h6.002v-6zM9.996 31.998h-5.998c-2.21 0-4-1.79-4-4v-6c0-2.208 1.79-4 4-4h5.998c2.21 0 4.002 1.792 4.002 4v6c0 2.21-1.792 4-4.002 4zM9.996 21.998h-5.998v6h5.998v-6zM9.996 13.998h-5.998c-2.21 0-4-1.79-4-4v-6c0-2.208 1.79-4 4-4h5.998c2.21 0 4.002 1.792 4.002 4v6c0 2.21-1.792 4-4.002 4zM9.996 3.998h-5.998v6h5.998v-6z"></path></symbol><symbol id="icon-arrow-shack" viewBox="0 0 32 32"><title>arrow-shack</title><path d="M31.997 22.198c0 0.79-0.314 1.584-0.928 2.189-1.238 1.213-3.245 1.213-4.483 0l-10.438-10.205-10.432 10.205c-1.238 1.213-3.245 1.213-4.48 0-1.238-1.21-1.238-3.171 0-4.381l12.675-12.397c1.238-1.21 3.242-1.21 4.48 0l12.678 12.397c0.614 0.605 0.928 1.398 0.928 2.192z"></path></symbol><symbol id="icon-arrow-shack-bottom" viewBox="0 0 32 32"><title>arrow-shack-bottom</title><path d="M-0.003 9.802c0-0.794 0.31-1.587 0.928-2.192 1.238-1.21 3.242-1.21 4.483 0l10.432 10.205 10.438-10.205c1.235-1.21 3.242-1.21 4.48 0s1.238 3.171 0 4.381l-12.675 12.397c-1.238 1.213-3.245 1.213-4.48 0l-12.678-12.397c-0.618-0.605-0.928-1.395-0.928-2.189z"></path></symbol><symbol id="icon-arrow-shack-left" viewBox="0 0 32 32"><title>arrow-shack-left</title><path d="M22.192-0.003c0.794 0 1.59 0.31 2.195 0.931 1.21 1.238 1.21 3.242 0 4.48l-10.208 10.435 10.208 10.438c1.21 1.235 1.21 3.242 0 4.48-1.216 1.238-3.174 1.238-4.381 0l-12.397-12.678c-1.213-1.235-1.213-3.242 0-4.48l12.397-12.675c0.602-0.621 1.395-0.931 2.186-0.931z"></path></symbol><symbol id="icon-notification" viewBox="0 0 32 32"><title>notification</title><path d="M27.998 14.342c0-6.012-4.338-11.146-10-12.124v-0.218c0-1.1-0.9-2-2-2s-2.002 0.9-2.002 2v0.18c-5.664 0.956-9.998 5.886-9.998 11.818v0.344c-2.33 0.826-4 3.050-4 5.656 0 3.31 2.692 6 6 6h4c0 3.31 2.692 6.002 6 6.002s6-2.692 6-6.002h4c3.308 0 5.998-2.69 5.998-6 0-2.606-1.672-4.83-3.998-5.656zM15.998 28c-1.104 0-2.002-0.896-2.002-2.002h4.002c0 1.106-0.896 2.002-2 2.002zM25.998 22h-20c-1.106 0-2-0.896-2-2.002 0-1.104 0.894-1.998 2-1.998h2c0 0 0-2.068 0-4.002 0-4.416 3.582-7.998 8-7.998 0.258 0 0.522 0.012 0.786 0.036 4.16 0.398 7.214 3.784 7.214 7.962v4.002h2c1.106 0 2 0.894 2 1.998 0 1.106-0.894 2.002-2 2.002z"></path></symbol><symbol id="icon-organisations" viewBox="0 0 32 32"><title>organisations</title><path d="M25.998 29.998c-2.608 0-4.806-1.674-5.634-4h-8.734c-0.828 2.326-3.024 4-5.632 4-3.314 0-6-2.686-6-6s2.686-6 6-6c2.608 0 4.804 1.676 5.632 4h8.734c0.826-2.324 3.026-4 5.634-4 3.314 0 6 2.686 6 6s-2.686 6-6 6zM5.998 20.998c-1.652 0-3 1.346-3 3s1.348 3 3 3c1.654 0 2.998-1.346 2.998-3s-1.344-3-2.998-3zM25.998 20.998c-1.656 0-3.002 1.346-3.002 3s1.346 3 3.002 3c1.652 0 3-1.346 3-3s-1.348-3-3-3zM25.66 16.89l-3.326 2.218-3.794-5.694c-0.776 0.364-1.63 0.584-2.542 0.584s-1.768-0.218-2.542-0.582l-3.794 5.692-3.328-2.218 4-6 0.686 0.456c-0.646-0.956-1.022-2.108-1.022-3.348 0-3.314 2.686-6 6-6s6 2.686 6 6c0 1.24-0.376 2.392-1.020 3.348l0.684-0.456 3.998 6zM15.998 4.998c-1.656 0-3 1.346-3 3s1.344 3 3 3c1.654 0 3-1.346 3-3s-1.346-3-3-3z"></path></symbol><symbol id="icon-organisations-add" viewBox="0 0 32 32"><title>organisations-add</title><path d="M29.992 26h-2.004v1.998c0 1.1-0.898 2-2.002 2-1.1 0-2.002-0.9-2.002-2v-1.998h-2.002c-1.1 0-2.002-0.9-2.002-2.002 0-1.1 0.902-2 2.002-2h2.002v-1.998c0-1.1 0.902-2 2.002-2 1.104 0 2.002 0.9 2.002 2v1.998h2.004c1.102 0 2.002 0.9 2.002 2 0 1.102-0.9 2.002-2.002 2.002zM23.662 14.888l-3.328 2.22-1.836-3.67c-0.764 0.352-1.606 0.562-2.502 0.562-0.912 0-1.766-0.22-2.54-0.584l-3.794 5.692-3.328-2.218 3.998-6 0.686 0.456c-0.644-0.956-1.020-2.108-1.020-3.348 0-3.312 2.686-5.998 5.998-5.998 3.316 0 6.002 2.686 6.002 5.998 0 1.24-0.378 2.392-1.022 3.348l0.684-0.456 2.002 3.998zM15.996 4.998c-1.654 0-2.998 1.346-2.998 3 0 1.656 1.344 3 2.998 3s3.002-1.344 3.002-3c0-1.654-1.348-3-3.002-3zM11.628 21.998h6.37v4.002h-6.37c-0.826 2.324-3.022 3.998-5.63 3.998-3.314 0-6-2.686-6-6s2.686-6 6-6c2.608 0 4.804 1.676 5.63 4zM5.998 21c-1.654 0-3 1.344-3 2.998s1.346 3.002 3 3.002c1.652 0 3-1.348 3-3.002s-1.348-2.998-3-2.998z"></path></symbol><symbol id="icon-profile-add" viewBox="0 0 32 32"><title>profile-add</title><path d="M29.992 28h-2.002v2c0 1.1-0.9 1.998-2.004 1.998-1.1 0-2.002-0.898-2.002-1.998v-2h-2.002c-1.102 0-2.002-0.9-2.002-2.002 0-1.098 0.9-1.998 2.002-1.998h2.002v-2c0-1.102 0.902-2.002 2.002-2.002 1.104 0 2.004 0.9 2.004 2.002v2h2.002c1.102 0 2.002 0.9 2.002 1.998 0 1.102-0.9 2.002-2.002 2.002zM20.88 17.238c-0.264 0.252-0.57 0.458-0.86 0.678-0.178 0.136-0.338 0.288-0.526 0.412-0.316 0.208-0.66 0.37-0.998 0.542-0.23 0.118-0.446 0.26-0.686 0.36-0.382 0.16-0.792 0.26-1.194 0.372-0.22 0.060-0.43 0.15-0.656 0.196-0.642 0.13-1.306 0.2-1.986 0.2-3.584 0-6.868 1.182-9.53 3.162-0.582 0.42-0.582 1.26 0 1.68 2.964 2.2 6.448 3.178 9.51 3.178 1.122 0 2.022 0.862 2.022 1.982s-0.92 1.998-2.062 1.998c-4.484-0.020-8.528-1.458-11.872-3.938-1.282-0.94-2.042-2.46-2.042-4.060s0.76-3.12 2.042-4.062c1.562-1.16 3.242-2.060 5.024-2.7l0.020-0.018c-0.338-0.32-0.632-0.676-0.92-1.040-0.048-0.062-0.112-0.116-0.16-0.182h0.010c-1.27-1.676-2.052-3.738-2.052-5.998 0-5.514 4.492-10 10.010-10 5.52 0 10.010 4.486 10.010 10 0 2.844-1.206 5.398-3.12 7.22l0.016 0.018zM13.974 4c-3.316 0-6.006 2.686-6.006 6s2.69 5.998 6.006 5.998c3.318 0 6.006-2.684 6.006-5.998s-2.688-6-6.006-6z"></path></symbol><symbol id="icon-profiles" viewBox="0 0 32 32"><title>profiles</title><path d="M27.597 17.698a7.917 7.917 0 0 0 2.399-5.7 7.996 7.996 0 0 0-12.459-6.641A7.969 7.969 0 0 0 9.996-.002a7.997 7.997 0 0 0-7.999 7.999c0 2.241.919 4.261 2.4 5.701-2.64 1.8-4.4 4.859-4.4 8.3 0 1.399.72 6 9.999 6 .881 0 1.661-.041 2.4-.12.763 1.84 3.06 4.119 9.6 4.119 9.281 0 10.002-4.599 10.002-6 0-3.439-1.76-6.498-4.401-8.299zm-5.601-9.701a4.013 4.013 0 0 1 4.001 4.001c0 2.2-1.8 3.999-4.001 3.999a4.01 4.01 0 0 1-3.998-3.999c0-2.2 1.799-4.001 3.998-4.001zm-15.998 0a4.01 4.01 0 0 1 3.998-3.999c2.201 0 4.001 1.8 4.001 3.999 0 2.201-1.8 4.001-4.001 4.001a4.01 4.01 0 0 1-3.998-4.001zM3.997 21.998c0-3.32 2.68-6.001 5.999-6.001a5.951 5.951 0 0 1 5.061 2.78 10.267 10.267 0 0 0-2.839 5.101c-.621.08-1.361.12-2.222.12-5.999 0-5.999-2-5.999-2zm17.999 6c-3.34 0-4.819-.62-5.48-1.16-.519-.44-.519-.841-.519-.841 0-2.559 1.6-4.739 3.861-5.599a5.814 5.814 0 0 1 2.138-.401 5.993 5.993 0 0 1 6.001 6s0 2.001-6.001 2.001z"></path></symbol><symbol id="icon-profiles-add" viewBox="0 0 32 32"><title>profiles-add</title><path d="M29.998 27.998h-2v2c0 1.1-0.9 2-2 2s-2-0.9-2-2v-2h-2c-1.1 0-2-0.9-2-2s0.9-2 2-2h2v-2c0-1.1 0.9-2 2-2s2 0.9 2 2v2h2c1.098 0 2 0.9 2 2s-0.902 2-2 2zM27.998 13.998c-1.1 0-2-0.9-2-2 0-2.2-1.8-4-4-4s-4 1.8-4 4c0 2.2 1.8 4 4 4 1.1 0 2 0.9 2 2s-0.9 2-2 2c-0.76 0-1.48 0.14-2.14 0.4-2.26 0.86-3.86 3.040-3.86 5.6v4c0 1.1-0.9 2-2 2s-2-0.9-2-2v-2.1c-0.62 0.080-1.28 0.1-2 0.1-9.28 0-10-4.6-10-6 0-3.44 1.76-6.5 4.4-8.3-1.48-1.44-2.398-3.46-2.398-5.7 0-4.42 3.578-8 7.998-8 3.5 0 6.46 2.24 7.54 5.36 0.218-0.16 0.48-0.3 0.76-0.44 0.18-0.1 0.38-0.2 0.6-0.28 0.94-0.42 2-0.64 3.1-0.64 4.42 0 8 3.58 8 8 0 1.1-0.902 2-2 2zM9.998 3.998c-2.2 0-4 1.8-4 4s1.8 4 4 4c2.2 0 4-1.8 4-4s-1.8-4-4-4zM9.998 15.998c-3.32 0-6 2.68-6 6 0 0 0 2 6 2 0.86 0 1.6-0.040 2.22-0.12 0.438-1.98 1.44-3.72 2.84-5.1-1.060-1.68-2.918-2.78-5.060-2.78z"></path></symbol><symbol id="icon-puzzle" viewBox="0 0 32 32"><title>puzzle</title><path d="M25.998 11.38v-1.38c0-2.2-1.8-4-4-4h-1.4c-0.18-1.080-0.58-1.922-0.942-2.48-1.358-2.202-3.838-3.52-6.658-3.52s-5.302 1.318-6.66 3.52c-0.362 0.558-0.76 1.4-0.94 2.48h-1.4c-2.2 0-4.002 1.8-4.002 4v6c0 0.298 0.082 0.6 0.222 0.9 0.358 0.734 1.126 1.142 1.908 1.090 0.26-0.016 0.522-0.086 0.772-0.21 0.3-0.14 0.7-0.32 1.1-0.422 0.6-0.138 1.22-0.138 1.6 0.32 0.54 0.662 0.54 1.982 0 2.642-0.38 0.46-1 0.46-1.6 0.32-0.4-0.102-0.8-0.28-1.1-0.42-0.25-0.126-0.512-0.194-0.772-0.212-0.782-0.052-1.55 0.356-1.908 1.092-0.14 0.298-0.222 0.6-0.222 0.9v6c0 2.2 1.802 4 4.002 4h18c2.2 0 4-1.8 4-4v-1.38c3.498-0.64 6-3.7 6-7.62 0-3.922-2.502-6.98-6-7.62zM24.658 22.718c-0.76 0-1.64-0.218-2.66-0.718v6h-18v-3.3c0.22 0.020 0.44 0.038 0.66 0.038 2.28 0 3.6-1.358 4.060-1.898 1.72-2.16 1.72-5.52 0-7.68-0.482-0.6-2.022-2.14-4.72-1.82v-3.34h6c-2-4 0.5-6 3-6 2.498 0 5 2 3 6h6v6c1.020-0.502 1.9-0.72 2.66-0.72 4.46 0 4.46 7.438 0 7.438z"></path></symbol><symbol id="icon-rounded-rectangle-right" viewBox="0 0 32 32"><title>rounded-rectangle-right</title><path d="M9.886 31.162c-0.875 0.836-2.291 0.836-3.166 0l0.55 0.617c-0.873-0.836-0.873-2.195 0-3.034l13.314-12.646-13.314-12.847c-0.873-0.836-0.873-2.195 0-3.034l-0.55 0.619c0.875-0.838 2.291-0.838 3.166 0l15.712 15.055-15.712 15.27z"></path></symbol><symbol id="icon-rounded-rectangle-bottom" viewBox="0 0 32 32"><title>rounded-rectangle-bottom</title><path d="M0.646 9.664c-0.849-0.887-0.849-2.323 0-3.211l-0.625 0.559c0.849-0.885 2.223-0.885 3.072 0l12.809 13.5 13.007-13.5c0.849-0.885 2.223-0.885 3.072 0l-0.625-0.559c0.847 0.887 0.847 2.323 0 3.211l-15.245 15.932-15.465-15.932z"></path></symbol><symbol id="icon-search" viewBox="0 0 32 32"><title>search</title><path d="M31.256 27.846l-9.028-9.079c1.308-1.847 2.088-4.098 2.088-6.534 0-6.227-5.041-11.294-11.236-11.294-6.191 0-11.232 5.067-11.232 11.294 0 6.229 5.041 11.296 11.232 11.296 2.423 0 4.664-0.785 6.5-2.099l9.028 9.075c0.365 0.369 0.845 0.552 1.323 0.552 0.48 0 0.958-0.183 1.325-0.552 0.73-0.734 0.73-1.926 0-2.66zM13.080 19.763c-4.134 0-7.488-3.371-7.488-7.529s3.354-7.529 7.488-7.529c4.137 0 7.49 3.371 7.49 7.529s-3.352 7.529-7.49 7.529z"></path></symbol><symbol id="icon-settings" viewBox="0 0 32 32"><title>settings</title><path d="M29.998 18h-14c-0.122 0-0.228-0.050-0.344-0.070-0.806 2.364-3.016 4.070-5.656 4.070-2.612 0-4.802-1.674-5.628-4h-2.372c-1.1 0-2-0.902-2-2 0-1.1 0.9-2 2-2h2.372c0.826-2.328 3.016-4 5.628-4 2.614 0 4.8 1.672 5.626 4h14.374c1.098 0 2 0.9 2 2 0 1.098-0.902 2-2 2zM9.998 14c-1.1 0-2 0.9-2 2 0 1.098 0.9 2 2 2 1.102 0 1.998-0.902 1.998-2 0-1.1-0.896-2-1.998-2zM29.998 8h-2.374c-0.824 2.326-3.012 4-5.626 4-2.612 0-4.8-1.674-5.626-4h-14.374c-1.1 0-2-0.9-2-2s0.9-2 2-2h14.374c0.826-2.326 3.014-4 5.626-4 2.614 0 4.802 1.674 5.626 4h2.374c1.098 0 2 0.9 2 2s-0.902 2-2 2zM21.998 4c-1.1 0-2 0.9-2 2s0.9 2 2 2c1.1 0 2-0.9 2-2s-0.9-2-2-2zM1.998 24h14.374c0.826-2.326 3.014-4 5.626-4 2.614 0 4.802 1.674 5.626 4h2.374c1.098 0 2 0.898 2 2 0 1.1-0.902 2-2 2h-2.374c-0.824 2.326-3.012 4-5.626 4-2.612 0-4.8-1.674-5.626-4h-14.374c-1.1 0-2-0.9-2-2 0-1.102 0.9-2 2-2zM21.998 28c1.1 0 2-0.9 2-2 0-1.102-0.9-2-2-2s-2 0.898-2 2c0 1.1 0.9 2 2 2z"></path></symbol><symbol id="icon-search-shape" viewBox="0 0 32 32"><title>search-shape</title><path d="M13.546 3.427c5.614 0 10.206 4.614 10.206 10.285 0 2.134-0.677 4.187-1.909 5.939l-1.005 1.43-1.414 1.014c-1.734 1.245-3.741 1.902-5.853 1.902-5.613 0-10.205-4.614-10.205-10.286 0-5.67 4.566-10.285 10.179-10.285zM13.571-0.002c-7.496 0-13.573 6.141-13.573 13.714 0 7.574 6.077 13.715 13.573 13.715 2.925 0 5.603-0.944 7.819-2.536l6.376 6.44c0.44 0.445 1.014 0.667 1.592 0.667 0.576 0 1.154-0.222 1.594-0.667l0.032-0.032c0.739-0.746 1.013-2.371 0-3.219l-6.374-6.44c1.576-2.24 2.536-4.971 2.536-7.928 0-7.573-6.104-13.714-13.6-13.714h0.026z"></path></symbol><symbol id="icon-filter" viewBox="0 0 32 32"><title>filter</title><path d="M17.998 18.998v8l-4 4v-12l-14-14.998v-3h32v3l-14 14.998zM7.998 4.998l8 10.002 8-10.002h-16z"></path></symbol><symbol id="icon-cross" viewBox="0 0 32 32"><title>cross</title><path d="M18.704 16.058l12.45-12.518c0.774-0.776 0.774-2.034 0-2.812s-2.026-0.778-2.798 0l-12.45 12.518-12.452-12.518c-0.772-0.778-2.024-0.778-2.798 0-0.77 0.778-0.77 2.036 0 2.812l12.452 12.518-12.452 12.518c-0.77 0.778-0.77 2.036 0 2.814 0.388 0.388 0.892 0.582 1.4 0.582 0.506 0 1.014-0.194 1.398-0.582l12.452-12.518 12.45 12.518c0.386 0.388 0.892 0.582 1.4 0.582 0.506 0 1.012-0.194 1.398-0.582 0.774-0.778 0.774-2.036 0-2.814l-12.45-12.518z"></path></symbol><symbol id="icon-picture" viewBox="0 0 16 16"><title>picture</title><path d="M13.998 16H1.999a2 2 0 0 1-2.001-2V1.999A2 2 0 0 1 1.999 0h11.999A2 2 0 0 1 16 1.999V14c0 1.104-.896 2-2.002 2zm0-14.001H1.999V14h11.999V1.999zM8.999 10l2-2.001 1.999 3H2.999l2.999-5L8.999 10zm1-3a1 1 0 1 1 0-2 1 1 0 0 1 0 2z"></path></symbol><symbol id="icon-camera" viewBox="0 0 16 16"><title>camera</title><path d="M13.999 14h-12a2 2 0 0 1-2-2V4a2 2 0 0 1 2-2h1.764l.447-.895A1.998 1.998 0 0 1 5.999-.001h4a2 2 0 0 1 1.789 1.106l.447.895h1.764a2 2 0 0 1 2 2v8a2 2 0 0 1-2 2zm0-10h-3l-1-2h-4l-1 2h-3v8h12V4zm-6 1c1.654 0 3 1.345 3 3 0 1.654-1.346 3-3 3s-3-1.346-3-3c0-1.655 1.346-3 3-3zm0 4a1 1 0 1 0 0-2 1 1 0 0 0 0 2z"></path></symbol><symbol id="icon-phone" viewBox="0 0 16 16"><title>phone</title><path d="M15.897 11.63l-.77 2.32a2.001 2.001 0 0 1-1.086 1.197A9.886 9.886 0 0 1 9.998 16a9.977 9.977 0 0 1-7.06-2.921 9.504 9.504 0 0 1-1.499-1.896 7.953 7.953 0 0 1-.388-.721A9.793 9.793 0 0 1-.004 6c0-1.41.286-2.769.852-4.042A1.997 1.997 0 0 1 2.046.872l2.321-.77a2 2 0 0 1 2.527 1.266l1 3a2 2 0 0 1-1.002 2.421l-.728.364a3.953 3.953 0 0 0 1.014 1.679 3.917 3.917 0 0 0 1.667 1.001l.364-.728a2 2 0 0 1 2.422-1.003l2.999 1.001a2 2 0 0 1 1.267 2.527zM13.998 11l-3-1-1 2a5.945 5.945 0 0 1-4.241-1.76A5.941 5.941 0 0 1 3.996 6l2-1-1-3-2.32.77A7.92 7.92 0 0 0 1.996 6c0 1.29.299 2.5.85 3.58.09.19.19.38.3.56.33.55.73 1.06 1.191 1.51A7.98 7.98 0 0 0 9.998 14c1.15 0 2.24-.24 3.23-.68l.77-2.32z"></path></symbol><symbol id="icon-location-2" viewBox="0 0 14 16"><title>location-2</title><path d="M7.741 15.856a1.98 1.98 0 0 1-1.485 0C6.001 15.754-.001 13.281-.001 7c0-3.86 3.14-7.001 7-7.001S13.998 3.14 13.998 7c0 6.281-6 8.754-6.257 8.856zM6.999 2a5 5 0 0 0-5 5c0 5 5 7 5 7s5-2 5-7a5 5 0 0 0-5-5zm0 7.999c-1.655 0-3-1.345-3-2.999 0-1.655 1.345-3 3-3 1.654 0 3 1.345 3 3a3.003 3.003 0 0 1-3 2.999zm0-4A1 1 0 1 0 7 8 1 1 0 0 0 7 6z"></path></symbol><symbol id="icon-world-1" viewBox="0 0 16 16"><title>world-1</title><path d="M15.978 7.39a8.323 8.323 0 0 0-.299-1.61c-.94-3.25-3.89-5.66-7.41-5.77-.09-.011-.18-.011-.27-.011-.09 0-.18 0-.271.011C4.209.12 1.259 2.53.318 5.78a8.4 8.4 0 0 0-.299 1.61c-.01.2-.02.4-.02.61 0 4.32 3.44 7.85 7.729 7.99.091.01.181.01.271.01.09 0 .18 0 .27-.01A8 8 0 0 0 15.998 8c0-.21-.009-.41-.02-.61zm-3.239-3.05c.559.71.96 1.55 1.14 2.46.02.11.039.229.05.339-.19.24-.9.451-1.929.601-.012-.5-.032-1.001-.081-1.5-.06-.71-.16-1.411-.31-2.07-.09-.42-.201-.82-.34-1.201.569.37 1.07.831 1.47 1.371zm-3.25-.311c.18.581.319 1.271.399 2.02.072.591.111 1.231.111 1.891-.63.039-1.3.06-2 .06s-1.371-.021-2-.06c0-.66.04-1.3.11-1.891.08-.749.22-1.439.399-2.02C6.869 2.78 7.409 2 7.999 2c.59 0 1.13.78 1.49 2.029zm-4.76-1.06a9 9 0 0 0-.341 1.201 15.14 15.14 0 0 0-.309 2.07c-.05.499-.07 1-.08 1.5-1.03-.15-1.74-.361-1.93-.601.01-.11.03-.229.05-.339.18-.91.58-1.75 1.139-2.46a5.67 5.67 0 0 1 1.471-1.371zm-2.56 6.42c.51.171 1.139.301 1.91.401.1 1.16.309 2.279.65 3.24a5.956 5.956 0 0 1-2.56-3.641zm3.94.571c.58.03 1.2.04 1.89.04.689 0 1.309-.01 1.889-.04C9.618 12.31 8.869 14 7.999 14c-.87 0-1.62-1.69-1.89-4.04zm5.16 3.07c.34-.961.55-2.08.65-3.24.77-.1 1.4-.23 1.91-.401a5.96 5.96 0 0 1-2.56 3.641z"></path></symbol><symbol id="icon-profile-close-1" viewBox="0 0 14 16"><title>profile-close-1</title><path d="M12.966 9.969a10.018 10.018 0 0 0-2.524-1.355A4.98 4.98 0 0 0 7.586.038C7.342 0 7.138 0 6.997 0c-.142 0-.346 0-.59.038A4.979 4.979 0 0 0 1.985 5c0 1.423.606 2.703 1.567 3.614a9.984 9.984 0 0 0-2.524 1.355A2.534 2.534 0 0 0-.001 12c0 .795.384 1.554 1.029 2.031a9.963 9.963 0 0 0 5.969 1.968c2.164 0 4.228-.68 5.969-1.968A2.54 2.54 0 0 0 13.994 12c0-.796-.384-1.556-1.028-2.031zM3.99 5a2.99 2.99 0 0 1 2.696-2.98c.101-.021.201-.021.311-.021.109 0 .21 0 .311.021A2.99 2.99 0 0 1 10.004 5a3 3 0 0 1-3.007 3A3 3 0 0 1 3.99 5zm7.783 7.424A8.005 8.005 0 0 1 6.997 14a8.001 8.001 0 0 1-4.776-1.576.523.523 0 0 1 0-.849 8.001 8.001 0 0 1 4.776-1.576c1.79 0 3.442.589 4.776 1.576a.524.524 0 0 1 0 .849z"></path></symbol><symbol id="icon-data-line" viewBox="0 0 17 16"><title>data-line</title><path d="M13.792 8.436a.997.997 0 0 1-1.464.435l-1.96-1.307-1.53 3.827a.99.99 0 0 1-.922.624.99.99 0 0 1-.825-.442L5.106 8.595a.992.992 0 1 1 1.651-1.101l.939 1.408L8.98 5.691a.993.993 0 0 1 1.472-.457l1.985 1.323L14.945.706a.993.993 0 0 1 1.824.783l-2.977 6.947zm3.057 6.556a.996.996 0 0 1-.993.993H1.961a.996.996 0 0 1-.992-.993V1.097c0-.545.447-.992.992-.992.547 0 .994.447.994.992V14h12.901c.546 0 .993.446.993.992z"></path></symbol><symbol id="icon-time-1" viewBox="0 0 16 16"><title>time-1</title><path d="M7.999 15.999c-4.411 0-8-3.588-8-8 0-4.411 3.589-7.999 8-7.999s8 3.588 8 7.999c0 4.412-3.589 8-8 8zm0-14a6 6 0 1 0 0 12A6 6 0 0 0 8 2zm3 7.001h-3a1 1 0 0 1-1-1.001V5a1 1 0 1 1 1.999 0v1.999h2.001a1 1 0 1 1 0 2.001z"></path></symbol><symbol id="icon-message-1" viewBox="0 0 16 16"><title>message-1</title><path d="M14 12H2a2 2 0 0 1-2-2V2a2 2 0 0 1 2-2h12a2 2 0 0 1 2 2v8a2 2 0 0 1-2 2zm0-10H2v8h12V2zM4.599 3.2L8 5.75l3.4-2.55a1 1 0 1 1 1.199 1.599l-4 3a.991.991 0 0 1-1.199 0l-4-3A1 1 0 1 1 4.599 3.2z"></path></symbol><symbol id="icon-profile-badge-2" viewBox="0 0 16 16"><title>profile-badge-2</title><path d="M12 16H2a2 2 0 0 1-2-2V4a2 2 0 0 1 2-2h1V1a1 1 0 0 1 2 0v1h4V1a1 1 0 0 1 2 0v1h1a2 2 0 0 1 2 2v10a2 2 0 0 1-2 2zm-2.18-2c-.4-1.17-1.51-2-2.82-2-1.31 0-2.42.83-2.82 2h5.64zM8 8c0-.55-.45-1-1-1s-1 .45-1 1 .45 1 1 1 1-.45 1-1zm4-4h-1a1 1 0 0 1-2 0H5a1 1 0 0 1-2 0H2v10h.1a4.997 4.997 0 0 1 3.063-3.642A2.982 2.982 0 0 1 4 8c0-1.66 1.34-3 3-3s3 1.34 3 3c0 .963-.46 1.81-1.163 2.358A4.997 4.997 0 0 1 11.9 14h.1V4z"></path></symbol><symbol id="icon-baggage" viewBox="0 0 16 16"><title>baggage</title><path d="M14 3h-2V2a2 2 0 0 0-2-2H6a2 2 0 0 0-2 2v1H2a2 2 0 0 0-2 2v9a2 2 0 0 0 2 2h12a2 2 0 0 0 2-2V5a2 2 0 0 0-2-2zM6 2h4v1H6V2zm8 12H2v-2h2a1 1 0 0 0 2 0h4a1 1 0 0 0 2 0h2v2zm0-4h-2a1 1 0 0 0-2 0H6a1 1 0 0 0-2 0H2V5h12v5z"></path></symbol><symbol id="icon-door-2" viewBox="0 0 12 16"><title>door-2</title><path d="M10 0H2C.9 0 0 .9 0 2v9c0 .161.024.315.061.465.011.048.028.093.043.139.033.102.072.199.12.294.025.049.05.098.079.146.059.094.126.181.198.264.029.033.052.069.083.1.104.105.221.194.346.274.015.01.026.024.041.033l5 3a1.997 1.997 0 0 0 2.014.025A2 2 0 0 0 9 14V6a2 2 0 0 0-.971-1.715L4.221 2H10v11c1.1 0 2-.9 2-2V2c0-1.1-.9-2-2-2zM7 14l-5-3V3l5 3v8z"></path></symbol><symbol id="icon-hospital-affiliations" viewBox="0 0 16 16"><title>hospital-affiliations</title><path d="M13.999 16h-3.73c-.002-.009-.006-.018-.007-.027-.087.011-.173.026-.263.026H2a2 2 0 0 1-2.001-2v-7a2 2 0 0 1 2-1.999H5V1.999a2 2 0 0 1 2-2h6.999c1.104 0 2.001.896 2.001 2v12A2.002 2.002 0 0 1 13.999 16zm-12-9.001l.001 7h7.999v-7h-8zm12-5H7V5h.999v-.157c0-.465.378-.843.844-.843h.312c.466 0 .844.378.844.843V5c.378 0 .727.11 1.028.292-.008-.046-.028-.088-.028-.136v-.313c0-.465.377-.843.844-.843h.312c.467 0 .844.378.844.843v.313a.844.844 0 0 1-.844.844h-.312c-.048 0-.09-.02-.136-.028.181.301.292.65.292 1.027h.156c.467 0 .844.378.844.844v.312a.844.844 0 0 1-.844.844h-.156v1h.156c.467 0 .844.378.844.844v.313a.844.844 0 0 1-.844.844h-.156v1.999h2v-12zM8.155 13h-.311A.844.844 0 0 1 7 12.156v-.313c0-.466.377-.843.844-.843h.311c.466 0 .844.377.844.843v.313a.844.844 0 0 1-.844.844zm0-3.001h-.311A.843.843 0 0 1 7 9.156v-.313c0-.466.377-.844.844-.844h.311c.466 0 .844.378.844.844v.313a.844.844 0 0 1-.844.843zM4.156 13h-.313a.844.844 0 0 1-.844-.844v-.313c0-.466.378-.843.844-.843h.313c.465 0 .844.377.844.843v.313a.845.845 0 0 1-.844.844zm0-3.001h-.313a.844.844 0 0 1-.844-.843v-.313c0-.466.378-.844.844-.844h.313c.465 0 .844.378.844.844v.313a.845.845 0 0 1-.844.843z"></path></symbol><symbol id="icon-departments" viewBox="0 0 16 16"><title>departments</title><path d="M13.999 15.999h-12a2 2 0 0 1-2-2V5a2 2 0 0 1 2-2.001h2v-1A2 2 0 0 1 6 0h3.999a2 2 0 0 1 2 1.999v1h2C15.104 2.999 16 3.895 16 5v8.999a2 2 0 0 1-2.001 2zm-4-14H6v1h3.999v-1zm4 8.001a1.001 1.001 0 0 1 0-2.001V5h-12v2.999a1 1 0 1 1 0 2.001v3.999h12V10zM6 7.999h1V7c0-.57.429-1 1-1 .569 0 1 .43 1 1v.999h.999c.57 0 1 .431 1 1a.979.979 0 0 1-1 1.001H9v.999A.98.98 0 0 1 8 12c-.571 0-1-.431-1-1.001V10H6c-.57 0-1-.431-1-1.001 0-.569.43-1 1-1z"></path></symbol><symbol id="icon-practices" viewBox="0 0 12 16"><title>practices</title><path d="M14.239 8.876c-.573 3.022-2.074 5.123-4.24 5.123-2.616 0-4.702-3.061-4.969-7.116C2.182 6.256-.001 2.977-.001 0H3.25A.75.75 0 0 1 4 .749v.5A.75.75 0 0 1 3.25 2h-.809C3.1 3.598 4.44 4.999 6 4.999S8.899 3.598 9.558 2H8.75A.75.75 0 0 1 8 1.249v-.5C8 .335 8.335 0 8.75 0h3.249c0 2.95-2.142 6.197-4.951 6.867.235 3.059 1.654 5.132 2.951 5.132 1.025 0 1.866-1.296 2.259-3.342A2.487 2.487 0 0 1 10.999 6.5 2.501 2.501 0 0 1 16 6.5a2.493 2.493 0 0 1-1.761 2.376z"></path></symbol><symbol id="icon-insurances" viewBox="0 0 16 16"><title>insurances</title><path d="M8.632 15.897a2.01 2.01 0 0 1-1.265 0c-2.548-.85-7.368-4.22-7.368-10.898a2 2 0 0 1 1.106-1.788L7.104.21a2.01 2.01 0 0 1 1.79 0l6 3.001a1.999 1.999 0 0 1 1.105 1.788c0 6.678-4.819 10.048-7.367 10.898zM8 2L1.999 4.999c0 7 6.001 9 6.001 9s5.999-2 5.999-9L8 2zm1.999 6H9v1a.979.979 0 0 1-1 .999c-.571 0-1-.43-1-.999V8H6c-.57 0-1-.431-1-1.001C5 6.43 5.43 6 6 6h1V4.999c0-.569.429-1 1-1a.98.98 0 0 1 1 1V6h.999c.57 0 1 .43 1 .999a.979.979 0 0 1-1 1.001z"></path></symbol><symbol id="icon-add-location" viewBox="0 0 16 16"><title>add-location</title><path d="M14.994 11.999h-1.001v1c0 .55-.45.999-1.001.999-.55 0-1.001-.449-1.001-.999v-1H10.99a1.004 1.004 0 0 1-1.001-1c0-.55.45-1 1.001-1h1.001v-1c0-.55.451-1.001 1.001-1.001.551 0 1.001.451 1.001 1.001v1h1.001c.551 0 1.001.45 1.001 1 0 .549-.45 1-1.001 1zM4.03 7.057c0-1.638 1.365-2.97 3.043-2.97 1.676 0 3.04 1.332 3.04 2.97 0 1.638-1.364 2.971-3.04 2.971-1.678 0-3.043-1.333-3.043-2.971zm4.056 0c0-.547-.453-.99-1.013-.99-.559 0-1.015.443-1.015.99 0 .546.456.99 1.015.99.56 0 1.013-.444 1.013-.99zm3.913-.058c0-2.765-2.179-4.944-5.024-4.892-3.4.063-5.595 3.436-4.758 6.655.963 3.705 4.856 5.226 4.856 5.226s.796-.094 1.926-.989c.389-.307.559-.226 1 0 .441.409 1.005.829.533 1.203-1.353 1.076-2.592 1.58-2.705 1.624a2.066 2.066 0 0 1-1.507 0c-.23-.089-5.021-2.016-6.122-6.767C-.801 4.745 2.21.341 6.734.134c4.066-.186 7.265 2.934 7.265 6.865-.031.016-2 .327-2 0zm-2 6c-.005-.004.131.068 0 0z"></path></symbol><symbol id="icon-edit-profile" viewBox="0 0 16 16"><title>edit-profile</title><path transform="translate(-5056 -6337)" d="M5068,6339l1.99,2-9.99,10h-2v-2l10-10m0-2a1.989,1.989,0,0,0-1.42.58l-9.99,10a2.039,2.039,0,0,0-.58,1.42v2a2,2,0,0,0,1.99,2h2a2.006,2.006,0,0,0,1.42-.59l9.99-10a2,2,0,0,0,0-2.83l-2-2a1.983,1.983,0,0,0-1.41-.58h0Zm0.99,7a1,1,0,0,1-.7-0.29l-3-3a1.008,1.008,0,0,1,0-1.42,1,1,0,0,1,1.41,0l3,3a1.008,1.008,0,0,1,0,1.42A1.024,1.024,0,0,1,5068.99,6344Z"></path></symbol><symbol id="icon-body-parts" viewBox="0 0 16 16"><title>body-parts</title><path d="M13.661 16h-1.662C10.765 16 9 15.235 9 13.999l.716-5.732a3.825 3.825 0 0 1-1.721-1.103 3.884 3.884 0 0 1-1.712 1.103L7 13.999C7 15.235 5.896 16 4.662 16H2.999c-1.475 0-3-1.317-3-2.794v-4.28A4.933 4.933 0 0 1 4.926 4C5.836 4 6 5.089 6 6l.026.205C6.597 5.888 7 5.301 7 4.603V0h2v4.603c0 .699.402 1.286.974 1.602L10 6c0-.911.162-2 1.074-2a4.931 4.931 0 0 1 4.925 4.926v4.28c0 1.477-.861 2.794-2.338 2.794zM5 6c-1.451.172-3.001 1.43-3.001 2.926v4.28c0 .374.627.793 1 .793h1c.133 0 1.001.133 1.001 0V6zm8.999 2.926c0-1.496-1.549-2.754-3-2.926v7.999c0 .133.868 0 1 0h1c.374 0 1-.419 1-.793v-4.28z"></path></symbol><symbol id="icon-procedures" viewBox="0 0 16 16"><title>procedures</title><path d="M14.651 4.083l-1.99.578L16 8l-1 1-1.303-1.303c-.025.033-.037.072-.067.102l-5.402 5.402a3.605 3.605 0 0 1-2.568 1.061 3.607 3.607 0 0 1-1.976-.586L1 16l-1.001-1 2.462-2.685c-.718-1.37-.519-3.099.631-4.249l5.402-5.403c.03-.03.069-.042.102-.067L6.999 1l1-1 3.494 3.493.671-2.058a.46.46 0 0 1 .775-.177l1.952 2.054a.463.463 0 0 1-.24.771zM4.534 9.507a1.596 1.596 0 0 0 0 2.252c.598.598 1.654.598 2.252 0l4.681-4.681-2.252-2.251-4.681 4.68z"></path></symbol><symbol id="icon-conditions" viewBox="0 0 16 16"><title>conditions</title><path d="M13.998 16H1.999A2 2 0 0 1 0 14V2a2 2 0 0 1 1.999-2h11.999a2 2 0 0 1 2.001 2v12a2 2 0 0 1-2.001 2zm0-14H1.999v7.273l3.219-4.229a1.436 1.436 0 0 1 1.266-.569c.492.036.928.317 1.166.751l2.561 4.668 1.242-1.675h1.766v1.999h-.758l-1.151 1.553a1.443 1.443 0 0 1-1.265.585 1.45 1.45 0 0 1-1.176-.751L6.301 6.924 3.42 10.709 1.999 9.628V14h11.999V2z"></path></symbol><symbol id="icon-sub-specialities" viewBox="0 0 16 16"><title>sub-specialities</title><path d="M8 16c-4.412 0-8-3.589-8-8 0-4.412 3.588-8 8-8 4.411 0 7.999 3.588 7.999 8 0 4.411-3.588 8-7.999 8zM8 2a6.006 6.006 0 0 0-6.001 6c0 3.308 2.691 6 6.001 6a6.006 6.006 0 0 0 5.999-6c0-3.309-2.691-6-5.999-6zm1.999 7h-1v.999a.98.98 0 0 1-1 1.001c-.571 0-1-.431-1-1.001V9h-1c-.57 0-1-.431-1-1 0-.57.43-1 1-1h1V6a.978.978 0 0 1 1-1.001.98.98 0 0 1 1 1.001v1h1c.569 0 .999.43.999 1 0 .569-.43 1-.999 1z"></path></symbol><symbol id="icon-menu-dots" viewBox="0 0 512 512"><title>menu-dots</title><path d="M328 256c0 39.8-32.2 72-72 72s-72-32.2-72-72 32.2-72 72-72 72 32.2 72 72zm104-72c-39.8 0-72 32.2-72 72s32.2 72 72 72 72-32.2 72-72-32.2-72-72-72zm-352 0c-39.8 0-72 32.2-72 72s32.2 72 72 72 72-32.2 72-72-32.2-72-72-72z"></path></symbol><symbol id="icon-approvals" viewBox="0 0 16 16"><title>approvals</title><path transform="translate(-5056 -6337)" d="M5068,6339l1.99,2-9.99,10h-2v-2l10-10m0-2a1.989,1.989,0,0,0-1.42.58l-9.99,10a2.039,2.039,0,0,0-.58,1.42v2a2,2,0,0,0,1.99,2h2a2.006,2.006,0,0,0,1.42-.59l9.99-10a2,2,0,0,0,0-2.83l-2-2a1.983,1.983,0,0,0-1.41-.58h0Zm0.99,7a1,1,0,0,1-.7-0.29l-3-3a1.008,1.008,0,0,1,0-1.42,1,1,0,0,1,1.41,0l3,3a1.008,1.008,0,0,1,0,1.42A1.024,1.024,0,0,1,5068.99,6344Z"><symbol id="icon-languages" viewBox="0 0 16 16"><title>languages</title><path transform="translate(-6007 -6178)" d="M6015,6178a8,8,0,1,0,8,8A8.011,8.011,0,0,0,6015,6178Zm0,14a6,6,0,0,1-4.84-2.46c0.07-.02.04-0.09-0.16-0.22a8.351,8.351,0,0,1-.43-0.77,24.635,24.635,0,0,1,.43-2.55,0.94,0.94,0,0,0-.91-0.99,5.988,5.988,0,0,1,.66-1.92,5.445,5.445,0,0,1,1.25-.09,0.817,0.817,0,0,0,.73-0.59,1.891,1.891,0,0,0,.01-1.44A6,6,0,1,1,6015,6192Zm4-5c-2,2,1-3,0-4a7.581,7.581,0,0,0-4-2,2.151,2.151,0,0,0-2,2c0,1,2,1,3,1s2-1,1,1-2,0-4,0-1,4,1,3,2,4,4,2S6021,6185,6019,6187Z"></path></symbol><symbol id="icon-injury-types" viewBox="0 0 16 16"><title>injury-types</title><path transform="translate(-5963.69 -6178)" d="M5979.19,6187.31l-1.36-1.33,1.34-1.31a2.832,2.832,0,0,0,0-4.07l-1.78-1.74a2.951,2.951,0,0,0-2.08-.84,2.992,2.992,0,0,0-2.09.84l-1.34,1.31-1.37-1.33a2.951,2.951,0,0,0-2.08-.84,2.992,2.992,0,0,0-2.09.84l-1.82,1.78a2.832,2.832,0,0,0,0,4.07l1.36,1.33-1.34,1.31a2.838,2.838,0,0,0,0,4.07l1.78,1.74a2.992,2.992,0,0,0,2.09.84,2.951,2.951,0,0,0,2.08-.84l1.34-1.31,1.37,1.33a2.951,2.951,0,0,0,2.08.84,2.992,2.992,0,0,0,2.09-.84l1.82-1.78A2.838,2.838,0,0,0,5979.19,6187.31Zm-8.4,3.5-1.35,1.31a1.525,1.525,0,0,1-2.07,0l-1.78-1.74a1.413,1.413,0,0,1,0-2.03l1.34-1.31Zm2.13-9.62,1.35-1.31a1.538,1.538,0,0,1,2.08,0l1.77,1.74a1.413,1.413,0,0,1,0,2.03l-1.34,1.31Zm5.65,8.16a1.423,1.423,0,0,1-.42,1.01l-1.83,1.78a1.538,1.538,0,0,1-2.08,0l-8.68-8.47a1.436,1.436,0,0,1,0-2.03l1.83-1.78a1.458,1.458,0,0,1,1.04-.42,1.493,1.493,0,0,1,1.04.42l8.68,8.47A1.429,1.429,0,0,1,5978.57,6189.35Zm-9.2-4.32a0.485,0.485,0,1,0,0,.97A0.485,0.485,0,1,0,5969.37,6185.03Zm1.99-1.94a0.485,0.485,0,1,0,.5.49A0.5,0.5,0,0,0,5971.36,6183.09Zm0.99,4.85a0.485,0.485,0,1,0,.5.48A0.489,0.489,0,0,0,5972.35,6187.94Zm1.99-1.94a0.485,0.485,0,1,0,.5.48A0.5,0.5,0,0,0,5974.34,6186Z"></path></symbol><symbol id="icon-credentials" viewBox="0 0 16 16"><title>credentials</title><path transform="translate(-5985.5 -6178.5)" d="M5989.64,6193a3.159,3.159,0,0,0,2.67-1.01,4.547,4.547,0,0,0,.78-2.84v-1.02h-2.24v1.14a6.651,6.651,0,0,1-.07,1.11,1.221,1.221,0,0,1-.33.66,1.113,1.113,0,0,1-.8.25,1.086,1.086,0,0,1-1.02-.48,3.136,3.136,0,0,1-.28-1.55v-5.5a5.783,5.783,0,0,1,.08-1.12,1.1,1.1,0,0,1,1.22-.95,1.153,1.153,0,0,1,.81.24,1.136,1.136,0,0,1,.33.63,7.3,7.3,0,0,1,.06,1.06v1.09h2.24v-1.06a4.15,4.15,0,0,0-.79-2.71,4.227,4.227,0,0,0-5.48.14,5.156,5.156,0,0,0-.82,3.16v4.53a5.106,5.106,0,0,0,.82,3.12,3.3,3.3,0,0,0,2.82,1.11h0Zm4.36,0,2.03-.17v-5.81h1.1l1.53,5.81h2.33l-1.78-6.25a2.16,2.16,0,0,0,1.22-1.11,4.743,4.743,0,0,0,.35-1.96,3.1,3.1,0,0,0-.99-2.61,4.888,4.888,0,0,0-3.01-.76L5994,6180v13Zm2.03-7.42v-3.86h0.86a1.607,1.607,0,0,1,1.33.46,2.272,2.272,0,0,1,.37,1.45,2.212,2.212,0,0,1-.41,1.49,1.864,1.864,0,0,1-1.41.46h-0.74Z"></path></symbol></path></symbol></defs></svg>